<svg id="visual" viewBox="0 0 1920 1080" width="1920" height="1080" xmlns="http://www.w3.org/2000/svg" xmlns:xlink="http://www.w3.org/1999/xlink" version="1.1"><rect x="0" y="0" width="1920" height="1080" fill="#181825"></rect><path d="M0 491L13.8 494.8C27.7 498.7 55.3 506.3 83.2 494.8C111 483.3 139 452.7 166.8 450.5C194.7 448.3 222.3 474.7 250.2 490.3C278 506 306 511 333.8 509.3C361.7 507.7 389.3 499.3 417.2 495.3C445 491.3 473 491.7 500.8 485.7C528.7 479.7 556.3 467.3 584.2 460.5C612 453.7 640 452.3 667.8 468.2C695.7 484 723.3 517 751.2 529.2C779 541.3 807 532.7 834.8 532.2C862.7 531.7 890.3 539.3 918.2 521.7C946 504 974 461 1001.8 458.5C1029.7 456 1057.3 494 1085.2 506.2C1113 518.3 1141 504.7 1168.8 495C1196.7 485.3 1224.3 479.7 1252.2 474.2C1280 468.7 1308 463.3 1335.8 473.2C1363.7 483 1391.3 508 1419.2 523C1447 538 1475 543 1502.8 529.3C1530.7 515.7 1558.3 483.3 1586.2 468.7C1614 454 1642 457 1669.8 458.3C1697.7 459.7 1725.3 459.3 1753.2 471C1781 482.7 1809 506.3 1836.8 504.2C1864.7 502 1892.3 474 1906.2 460L1920 446L1920 1081L1906.2 1081C1892.3 1081 1864.7 1081 1836.8 1081C1809 1081 1781 1081 1753.2 1081C1725.3 1081 1697.7 1081 1669.8 1081C1642 1081 1614 1081 1586.2 1081C1558.3 1081 1530.7 1081 1502.8 1081C1475 1081 1447 1081 1419.2 1081C1391.3 1081 1363.7 1081 1335.8 1081C1308 1081 1280 1081 1252.2 1081C1224.3 1081 1196.7 1081 1168.8 1081C1141 1081 1113 1081 1085.2 1081C1057.3 1081 1029.7 1081 1001.8 1081C974 1081 946 1081 918.2 1081C890.3 1081 862.7 1081 834.8 1081C807 1081 779 1081 751.2 1081C723.3 1081 695.7 1081 667.8 1081C640 1081 612 1081 584.2 1081C556.3 1081 528.7 1081 500.8 1081C473 1081 445 1081 417.2 1081C389.3 1081 361.7 1081 333.8 1081C306 1081 278 1081 250.2 1081C222.3 1081 194.7 1081 166.8 1081C139 1081 111 1081 83.2 1081C55.3 1081 27.7 1081 13.8 1081L0 1081Z" fill="#f5c2e7"></path><path d="M0 465L13.8 463.3C27.7 461.7 55.3 458.3 83.2 479.3C111 500.3 139 545.7 166.8 568.8C194.7 592 222.3 593 250.2 593C278 593 306 592 333.8 570C361.7 548 389.3 505 417.2 499.2C445 493.3 473 524.7 500.8 538.7C528.7 552.7 556.3 549.3 584.2 544.3C612 539.3 640 532.7 667.8 534.8C695.7 537 723.3 548 751.2 551.7C779 555.3 807 551.7 834.8 557.7C862.7 563.7 890.3 579.3 918.2 584.7C946 590 974 585 1001.8 570.5C1029.7 556 1057.3 532 1085.2 519.7C1113 507.3 1141 506.7 1168.8 518.5C1196.7 530.3 1224.3 554.7 1252.2 548.5C1280 542.3 1308 505.7 1335.8 504.3C1363.7 503 1391.3 537 1419.2 540.3C1447 543.7 1475 516.3 1502.8 509.5C1530.7 502.7 1558.3 516.3 1586.2 520.5C1614 524.7 1642 519.3 1669.8 520.2C1697.7 521 1725.3 528 1753.2 532.8C1781 537.7 1809 540.3 1836.8 542C1864.7 543.7 1892.3 544.3 1906.2 544.7L1920 545L1920 1081L1906.2 1081C1892.3 1081 1864.7 1081 1836.8 1081C1809 1081 1781 1081 1753.2 1081C1725.3 1081 1697.7 1081 1669.8 1081C1642 1081 1614 1081 1586.2 1081C1558.3 1081 1530.7 1081 1502.8 1081C1475 1081 1447 1081 1419.2 1081C1391.3 1081 1363.7 1081 1335.8 1081C1308 1081 1280 1081 1252.2 1081C1224.3 1081 1196.7 1081 1168.8 1081C1141 1081 1113 1081 1085.2 1081C1057.3 1081 1029.7 1081 1001.8 1081C974 1081 946 1081 918.2 1081C890.3 1081 862.7 1081 834.8 1081C807 1081 779 1081 751.2 1081C723.3 1081 695.7 1081 667.8 1081C640 1081 612 1081 584.2 1081C556.3 1081 528.7 1081 500.8 1081C473 1081 445 1081 417.2 1081C389.3 1081 361.7 1081 333.8 1081C306 1081 278 1081 250.2 1081C222.3 1081 194.7 1081 166.8 1081C139 1081 111 1081 83.2 1081C55.3 1081 27.7 1081 13.8 1081L0 1081Z" fill="#f5bde2"></path><path d="M0 598L13.8 591.8C27.7 585.7 55.3 573.3 83.2 563C111 552.7 139 544.3 166.8 558C194.7 571.7 222.3 607.3 250.2 609.7C278 612 306 581 333.8 560.3C361.7 539.7 389.3 529.3 417.2 544.3C445 559.3 473 599.7 500.8 614.7C528.7 629.7 556.3 619.3 584.2 603.3C612 587.3 640 565.7 667.8 565.3C695.7 565 723.3 586 751.2 594.3C779 602.7 807 598.3 834.8 584C862.7 569.7 890.3 545.3 918.2 549.8C946 554.3 974 587.7 1001.8 598C1029.7 608.3 1057.3 595.7 1085.2 593.3C1113 591 1141 599 1168.8 608.5C1196.7 618 1224.3 629 1252.2 617C1280 605 1308 570 1335.8 561.3C1363.7 552.7 1391.3 570.3 1419.2 578.7C1447 587 1475 586 1502.8 576C1530.7 566 1558.3 547 1586.2 544.3C1614 541.7 1642 555.3 1669.8 555C1697.7 554.7 1725.3 540.3 1753.2 542.3C1781 544.3 1809 562.7 1836.8 560.2C1864.7 557.7 1892.3 534.3 1906.2 522.7L1920 511L1920 1081L1906.2 1081C1892.3 1081 1864.7 1081 1836.8 1081C1809 1081 1781 1081 1753.2 1081C1725.3 1081 1697.7 1081 1669.8 1081C1642 1081 1614 1081 1586.2 1081C1558.3 1081 1530.7 1081 1502.8 1081C1475 1081 1447 1081 1419.2 1081C1391.3 1081 1363.7 1081 1335.8 1081C1308 1081 1280 1081 1252.2 1081C1224.3 1081 1196.7 1081 1168.8 1081C1141 1081 1113 1081 1085.2 1081C1057.3 1081 1029.7 1081 1001.8 1081C974 1081 946 1081 918.2 1081C890.3 1081 862.7 1081 834.8 1081C807 1081 779 1081 751.2 1081C723.3 1081 695.7 1081 667.8 1081C640 1081 612 1081 584.2 1081C556.3 1081 528.7 1081 500.8 1081C473 1081 445 1081 417.2 1081C389.3 1081 361.7 1081 333.8 1081C306 1081 278 1081 250.2 1081C222.3 1081 194.7 1081 166.8 1081C139 1081 111 1081 83.2 1081C55.3 1081 27.7 1081 13.8 1081L0 1081Z" fill="#f5b8de"></path><path d="M0 645L13.8 647.3C27.7 649.7 55.3 654.3 83.2 649.5C111 644.7 139 630.3 166.8 628.7C194.7 627 222.3 638 250.2 645.8C278 653.7 306 658.3 333.8 647C361.7 635.7 389.3 608.3 417.2 602.8C445 597.3 473 613.7 500.8 628.5C528.7 643.3 556.3 656.7 584.2 656.5C612 656.3 640 642.7 667.8 634C695.7 625.3 723.3 621.7 751.2 612.5C779 603.3 807 588.7 834.8 589.7C862.7 590.7 890.3 607.3 918.2 609.2C946 611 974 598 1001.8 595.3C1029.7 592.7 1057.3 600.3 1085.2 617C1113 633.7 1141 659.3 1168.8 668.8C1196.7 678.3 1224.3 671.7 1252.2 657.3C1280 643 1308 621 1335.8 623.5C1363.7 626 1391.3 653 1419.2 649C1447 645 1475 610 1502.8 607.5C1530.7 605 1558.3 635 1586.2 651.5C1614 668 1642 671 1669.8 667C1697.7 663 1725.3 652 1753.2 653.5C1781 655 1809 669 1836.8 660.7C1864.7 652.3 1892.3 621.7 1906.2 606.3L1920 591L1920 1081L1906.2 1081C1892.3 1081 1864.7 1081 1836.8 1081C1809 1081 1781 1081 1753.2 1081C1725.3 1081 1697.7 1081 1669.8 1081C1642 1081 1614 1081 1586.2 1081C1558.3 1081 1530.7 1081 1502.8 1081C1475 1081 1447 1081 1419.2 1081C1391.3 1081 1363.7 1081 1335.8 1081C1308 1081 1280 1081 1252.2 1081C1224.3 1081 1196.7 1081 1168.8 1081C1141 1081 1113 1081 1085.2 1081C1057.3 1081 1029.7 1081 1001.8 1081C974 1081 946 1081 918.2 1081C890.3 1081 862.7 1081 834.8 1081C807 1081 779 1081 751.2 1081C723.3 1081 695.7 1081 667.8 1081C640 1081 612 1081 584.2 1081C556.3 1081 528.7 1081 500.8 1081C473 1081 445 1081 417.2 1081C389.3 1081 361.7 1081 333.8 1081C306 1081 278 1081 250.2 1081C222.3 1081 194.7 1081 166.8 1081C139 1081 111 1081 83.2 1081C55.3 1081 27.7 1081 13.8 1081L0 1081Z" fill="#f5b3d9"></path><path d="M0 719L13.8 708.8C27.7 698.7 55.3 678.3 83.2 661.8C111 645.3 139 632.7 166.8 637.7C194.7 642.7 222.3 665.3 250.2 671.3C278 677.3 306 666.7 333.8 670.3C361.7 674 389.3 692 417.2 703.8C445 715.7 473 721.3 500.8 707.2C528.7 693 556.3 659 584.2 655.5C612 652 640 679 667.8 689.5C695.7 700 723.3 694 751.2 682.3C779 670.7 807 653.3 834.8 652.2C862.7 651 890.3 666 918.2 671.8C946 677.7 974 674.3 1001.8 673.7C1029.7 673 1057.3 675 1085.2 680C1113 685 1141 693 1168.8 694.8C1196.7 696.7 1224.3 692.3 1252.2 692.7C1280 693 1308 698 1335.8 692.8C1363.7 687.7 1391.3 672.3 1419.2 670.8C1447 669.3 1475 681.7 1502.8 689.2C1530.7 696.7 1558.3 699.3 1586.2 704.5C1614 709.7 1642 717.3 1669.8 707.5C1697.7 697.7 1725.3 670.3 1753.2 653.8C1781 637.3 1809 631.7 1836.8 646.7C1864.7 661.7 1892.3 697.3 1906.2 715.2L1920 733L1920 1081L1906.2 1081C1892.3 1081 1864.7 1081 1836.8 1081C1809 1081 1781 1081 1753.2 1081C1725.3 1081 1697.7 1081 1669.8 1081C1642 1081 1614 1081 1586.2 1081C1558.3 1081 1530.7 1081 1502.8 1081C1475 1081 1447 1081 1419.2 1081C1391.3 1081 1363.7 1081 1335.8 1081C1308 1081 1280 1081 1252.2 1081C1224.3 1081 1196.7 1081 1168.8 1081C1141 1081 1113 1081 1085.2 1081C1057.3 1081 1029.7 1081 1001.8 1081C974 1081 946 1081 918.2 1081C890.3 1081 862.7 1081 834.8 1081C807 1081 779 1081 751.2 1081C723.3 1081 695.7 1081 667.8 1081C640 1081 612 1081 584.2 1081C556.3 1081 528.7 1081 500.8 1081C473 1081 445 1081 417.2 1081C389.3 1081 361.7 1081 333.8 1081C306 1081 278 1081 250.2 1081C222.3 1081 194.7 1081 166.8 1081C139 1081 111 1081 83.2 1081C55.3 1081 27.7 1081 13.8 1081L0 1081Z" fill="#f5aed3"></path><path d="M0 732L13.8 732.3C27.7 732.7 55.3 733.3 83.2 725C111 716.7 139 699.3 166.8 699.8C194.7 700.3 222.3 718.7 250.2 733C278 747.3 306 757.7 333.8 747.2C361.7 736.7 389.3 705.3 417.2 706.7C445 708 473 742 500.8 756C528.7 770 556.3 764 584.2 761C612 758 640 758 667.8 749.3C695.7 740.7 723.3 723.3 751.2 714.7C779 706 807 706 834.8 701.7C862.7 697.3 890.3 688.7 918.2 695.2C946 701.7 974 723.3 1001.8 734.8C1029.7 746.3 1057.3 747.7 1085.2 737C1113 726.3 1141 703.7 1168.8 700C1196.7 696.3 1224.3 711.7 1252.2 714.7C1280 717.7 1308 708.3 1335.8 710.2C1363.7 712 1391.3 725 1419.2 734.3C1447 743.7 1475 749.3 1502.8 755.5C1530.7 761.7 1558.3 768.3 1586.2 762.7C1614 757 1642 739 1669.8 732.5C1697.7 726 1725.3 731 1753.2 736C1781 741 1809 746 1836.8 741.8C1864.7 737.7 1892.3 724.3 1906.2 717.7L1920 711L1920 1081L1906.2 1081C1892.3 1081 1864.7 1081 1836.8 1081C1809 1081 1781 1081 1753.2 1081C1725.3 1081 1697.7 1081 1669.8 1081C1642 1081 1614 1081 1586.2 1081C1558.3 1081 1530.7 1081 1502.8 1081C1475 1081 1447 1081 1419.2 1081C1391.3 1081 1363.7 1081 1335.8 1081C1308 1081 1280 1081 1252.2 1081C1224.3 1081 1196.7 1081 1168.8 1081C1141 1081 1113 1081 1085.2 1081C1057.3 1081 1029.7 1081 1001.8 1081C974 1081 946 1081 918.2 1081C890.3 1081 862.7 1081 834.8 1081C807 1081 779 1081 751.2 1081C723.3 1081 695.7 1081 667.8 1081C640 1081 612 1081 584.2 1081C556.3 1081 528.7 1081 500.8 1081C473 1081 445 1081 417.2 1081C389.3 1081 361.7 1081 333.8 1081C306 1081 278 1081 250.2 1081C222.3 1081 194.7 1081 166.8 1081C139 1081 111 1081 83.2 1081C55.3 1081 27.7 1081 13.8 1081L0 1081Z" fill="#f5a9ce"></path><path d="M0 736L13.8 750.5C27.7 765 55.3 794 83.2 795.3C111 796.7 139 770.3 166.8 762.7C194.7 755 222.3 766 250.2 772.7C278 779.3 306 781.7 333.8 778.5C361.7 775.3 389.3 766.7 417.2 757C445 747.3 473 736.7 500.8 736C528.7 735.3 556.3 744.7 584.2 753.3C612 762 640 770 667.8 770.5C695.7 771 723.3 764 751.2 758C779 752 807 747 834.8 751.5C862.7 756 890.3 770 918.2 767.2C946 764.3 974 744.7 1001.8 748.3C1029.7 752 1057.3 779 1085.2 790.5C1113 802 1141 798 1168.8 787.5C1196.7 777 1224.3 760 1252.2 764.7C1280 769.3 1308 795.7 1335.8 801C1363.7 806.3 1391.3 790.7 1419.2 786.8C1447 783 1475 791 1502.8 795.3C1530.7 799.7 1558.3 800.3 1586.2 796.5C1614 792.7 1642 784.3 1669.8 773.5C1697.7 762.7 1725.3 749.3 1753.2 755.2C1781 761 1809 786 1836.8 787.5C1864.7 789 1892.3 767 1906.2 756L1920 745L1920 1081L1906.2 1081C1892.3 1081 1864.7 1081 1836.8 1081C1809 1081 1781 1081 1753.2 1081C1725.3 1081 1697.7 1081 1669.8 1081C1642 1081 1614 1081 1586.2 1081C1558.3 1081 1530.7 1081 1502.8 1081C1475 1081 1447 1081 1419.2 1081C1391.3 1081 1363.7 1081 1335.8 1081C1308 1081 1280 1081 1252.2 1081C1224.3 1081 1196.7 1081 1168.8 1081C1141 1081 1113 1081 1085.2 1081C1057.3 1081 1029.7 1081 1001.8 1081C974 1081 946 1081 918.2 1081C890.3 1081 862.7 1081 834.8 1081C807 1081 779 1081 751.2 1081C723.3 1081 695.7 1081 667.8 1081C640 1081 612 1081 584.2 1081C556.3 1081 528.7 1081 500.8 1081C473 1081 445 1081 417.2 1081C389.3 1081 361.7 1081 333.8 1081C306 1081 278 1081 250.2 1081C222.3 1081 194.7 1081 166.8 1081C139 1081 111 1081 83.2 1081C55.3 1081 27.7 1081 13.8 1081L0 1081Z" fill="#f5a4c8"></path><path d="M0 807L13.8 813.3C27.7 819.7 55.3 832.3 83.2 842C111 851.7 139 858.3 166.8 853.2C194.7 848 222.3 831 250.2 819C278 807 306 800 333.8 807.3C361.7 814.7 389.3 836.3 417.2 838.8C445 841.3 473 824.7 500.8 816.7C528.7 808.7 556.3 809.3 584.2 810.7C612 812 640 814 667.8 820.5C695.7 827 723.3 838 751.2 834.7C779 831.3 807 813.7 834.8 809.5C862.7 805.3 890.3 814.7 918.2 818.2C946 821.7 974 819.3 1001.8 814.3C1029.7 809.3 1057.3 801.7 1085.2 807.2C1113 812.7 1141 831.3 1168.8 831.2C1196.7 831 1224.3 812 1252.2 802.5C1280 793 1308 793 1335.8 791.3C1363.7 789.7 1391.3 786.3 1419.2 788.2C1447 790 1475 797 1502.8 805.3C1530.7 813.7 1558.3 823.3 1586.2 829C1614 834.7 1642 836.3 1669.8 829.2C1697.7 822 1725.3 806 1753.2 796.8C1781 787.7 1809 785.3 1836.8 795.5C1864.7 805.7 1892.3 828.3 1906.2 839.7L1920 851L1920 1081L1906.2 1081C1892.3 1081 1864.7 1081 1836.8 1081C1809 1081 1781 1081 1753.2 1081C1725.3 1081 1697.7 1081 1669.8 1081C1642 1081 1614 1081 1586.2 1081C1558.3 1081 1530.7 1081 1502.8 1081C1475 1081 1447 1081 1419.2 1081C1391.3 1081 1363.7 1081 1335.8 1081C1308 1081 1280 1081 1252.2 1081C1224.3 1081 1196.7 1081 1168.8 1081C1141 1081 1113 1081 1085.2 1081C1057.3 1081 1029.7 1081 1001.8 1081C974 1081 946 1081 918.2 1081C890.3 1081 862.7 1081 834.8 1081C807 1081 779 1081 751.2 1081C723.3 1081 695.7 1081 667.8 1081C640 1081 612 1081 584.2 1081C556.3 1081 528.7 1081 500.8 1081C473 1081 445 1081 417.2 1081C389.3 1081 361.7 1081 333.8 1081C306 1081 278 1081 250.2 1081C222.3 1081 194.7 1081 166.8 1081C139 1081 111 1081 83.2 1081C55.3 1081 27.7 1081 13.8 1081L0 1081Z" fill="#f59fc2"></path><path d="M0 842L13.8 850.3C27.7 858.7 55.3 875.3 83.2 873.5C111 871.7 139 851.3 166.8 854.7C194.7 858 222.3 885 250.2 894.2C278 903.3 306 894.7 333.8 889.5C361.7 884.3 389.3 882.7 417.2 876C445 869.3 473 857.7 500.8 856.7C528.7 855.7 556.3 865.3 584.2 875.8C612 886.3 640 897.7 667.8 892.7C695.7 887.7 723.3 866.3 751.2 854.2C779 842 807 839 834.8 849.5C862.7 860 890.3 884 918.2 887.8C946 891.7 974 875.3 1001.8 872.7C1029.7 870 1057.3 881 1085.2 889.3C1113 897.7 1141 903.3 1168.8 906.3C1196.7 909.3 1224.3 909.7 1252.2 903.3C1280 897 1308 884 1335.8 881.8C1363.7 879.7 1391.3 888.3 1419.2 887.5C1447 886.7 1475 876.3 1502.8 869.7C1530.7 863 1558.3 860 1586.2 864.3C1614 868.7 1642 880.3 1669.8 879C1697.7 877.7 1725.3 863.3 1753.2 862.7C1781 862 1809 875 1836.8 881.3C1864.7 887.7 1892.3 887.3 1906.2 887.2L1920 887L1920 1081L1906.2 1081C1892.3 1081 1864.7 1081 1836.8 1081C1809 1081 1781 1081 1753.2 1081C1725.3 1081 1697.7 1081 1669.8 1081C1642 1081 1614 1081 1586.2 1081C1558.3 1081 1530.7 1081 1502.8 1081C1475 1081 1447 1081 1419.2 1081C1391.3 1081 1363.7 1081 1335.8 1081C1308 1081 1280 1081 1252.2 1081C1224.3 1081 1196.7 1081 1168.8 1081C1141 1081 1113 1081 1085.2 1081C1057.3 1081 1029.7 1081 1001.8 1081C974 1081 946 1081 918.2 1081C890.3 1081 862.7 1081 834.8 1081C807 1081 779 1081 751.2 1081C723.3 1081 695.7 1081 667.8 1081C640 1081 612 1081 584.2 1081C556.3 1081 528.7 1081 500.8 1081C473 1081 445 1081 417.2 1081C389.3 1081 361.7 1081 333.8 1081C306 1081 278 1081 250.2 1081C222.3 1081 194.7 1081 166.8 1081C139 1081 111 1081 83.2 1081C55.3 1081 27.7 1081 13.8 1081L0 1081Z" fill="#f59abc"></path><path d="M0 921L13.8 919.2C27.7 917.3 55.3 913.7 83.2 909.7C111 905.7 139 901.3 166.8 907.2C194.7 913 222.3 929 250.2 929.5C278 930 306 915 333.8 908.5C361.7 902 389.3 904 417.2 910.5C445 917 473 928 500.8 930.2C528.7 932.3 556.3 925.7 584.2 921.7C612 917.7 640 916.3 667.8 914.3C695.7 912.3 723.3 909.7 751.2 909C779 908.3 807 909.7 834.8 911.7C862.7 913.7 890.3 916.3 918.2 921.2C946 926 974 933 1001.8 933.5C1029.7 934 1057.3 928 1085.2 921.3C1113 914.7 1141 907.3 1168.8 911C1196.7 914.7 1224.3 929.3 1252.2 930.8C1280 932.3 1308 920.7 1335.8 920.2C1363.7 919.7 1391.3 930.3 1419.2 932.2C1447 934 1475 927 1502.8 921.5C1530.7 916 1558.3 912 1586.2 911C1614 910 1642 912 1669.8 919.5C1697.7 927 1725.3 940 1753.2 937.7C1781 935.3 1809 917.7 1836.8 909C1864.7 900.3 1892.3 900.7 1906.2 900.8L1920 901L1920 1081L1906.2 1081C1892.3 1081 1864.7 1081 1836.8 1081C1809 1081 1781 1081 1753.2 1081C1725.3 1081 1697.7 1081 1669.8 1081C1642 1081 1614 1081 1586.2 1081C1558.3 1081 1530.7 1081 1502.8 1081C1475 1081 1447 1081 1419.2 1081C1391.3 1081 1363.7 1081 1335.8 1081C1308 1081 1280 1081 1252.2 1081C1224.3 1081 1196.7 1081 1168.8 1081C1141 1081 1113 1081 1085.2 1081C1057.3 1081 1029.7 1081 1001.8 1081C974 1081 946 1081 918.2 1081C890.3 1081 862.7 1081 834.8 1081C807 1081 779 1081 751.2 1081C723.3 1081 695.7 1081 667.8 1081C640 1081 612 1081 584.2 1081C556.3 1081 528.7 1081 500.8 1081C473 1081 445 1081 417.2 1081C389.3 1081 361.7 1081 333.8 1081C306 1081 278 1081 250.2 1081C222.3 1081 194.7 1081 166.8 1081C139 1081 111 1081 83.2 1081C55.3 1081 27.7 1081 13.8 1081L0 1081Z" fill="#f495b5"></path><path d="M0 949L13.8 953.2C27.7 957.3 55.3 965.7 83.2 966.7C111 967.7 139 961.3 166.8 957.2C194.7 953 222.3 951 250.2 952.5C278 954 306 959 333.8 958.2C361.7 957.3 389.3 950.7 417.2 951.2C445 951.7 473 959.3 500.8 967.3C528.7 975.3 556.3 983.7 584.2 986C612 988.3 640 984.7 667.8 979.8C695.7 975 723.3 969 751.2 964.3C779 959.7 807 956.3 834.8 957.8C862.7 959.3 890.3 965.7 918.2 972.2C946 978.7 974 985.3 1001.8 987.2C1029.7 989 1057.3 986 1085.2 978.8C1113 971.7 1141 960.3 1168.8 955.8C1196.7 951.3 1224.3 953.7 1252.2 952.7C1280 951.7 1308 947.3 1335.8 947.3C1363.7 947.3 1391.3 951.7 1419.2 955.5C1447 959.3 1475 962.7 1502.8 960.5C1530.7 958.3 1558.3 950.7 1586.2 950C1614 949.3 1642 955.7 1669.8 960.7C1697.7 965.7 1725.3 969.3 1753.2 968.5C1781 967.7 1809 962.3 1836.8 967.5C1864.7 972.7 1892.3 988.3 1906.2 996.2L1920 1004L1920 1081L1906.2 1081C1892.3 1081 1864.7 1081 1836.8 1081C1809 1081 1781 1081 1753.2 1081C1725.3 1081 1697.7 1081 1669.8 1081C1642 1081 1614 1081 1586.2 1081C1558.3 1081 1530.7 1081 1502.8 1081C1475 1081 1447 1081 1419.2 1081C1391.3 1081 1363.7 1081 1335.8 1081C1308 1081 1280 1081 1252.2 1081C1224.3 1081 1196.7 1081 1168.8 1081C1141 1081 1113 1081 1085.2 1081C1057.3 1081 1029.7 1081 1001.8 1081C974 1081 946 1081 918.2 1081C890.3 1081 862.7 1081 834.8 1081C807 1081 779 1081 751.2 1081C723.3 1081 695.7 1081 667.8 1081C640 1081 612 1081 584.2 1081C556.3 1081 528.7 1081 500.8 1081C473 1081 445 1081 417.2 1081C389.3 1081 361.7 1081 333.8 1081C306 1081 278 1081 250.2 1081C222.3 1081 194.7 1081 166.8 1081C139 1081 111 1081 83.2 1081C55.3 1081 27.7 1081 13.8 1081L0 1081Z" fill="#f490af"></path><path d="M0 1015L13.8 1015.3C27.7 1015.7 55.3 1016.3 83.2 1018.8C111 1021.3 139 1025.7 166.8 1027C194.7 1028.3 222.3 1026.7 250.2 1021.3C278 1016 306 1007 333.8 1004.2C361.7 1001.3 389.3 1004.7 417.2 1005.7C445 1006.7 473 1005.3 500.8 1004.3C528.7 1003.3 556.3 1002.7 584.2 1004C612 1005.3 640 1008.7 667.8 1007.5C695.7 1006.3 723.3 1000.7 751.2 1002.8C779 1005 807 1015 834.8 1021C862.7 1027 890.3 1029 918.2 1024.5C946 1020 974 1009 1001.8 1008.7C1029.7 1008.3 1057.3 1018.7 1085.2 1021.5C1113 1024.3 1141 1019.7 1168.8 1020C1196.7 1020.3 1224.3 1025.7 1252.2 1031C1280 1036.3 1308 1041.7 1335.8 1037.2C1363.7 1032.7 1391.3 1018.3 1419.2 1009.7C1447 1001 1475 998 1502.8 1004.8C1530.7 1011.7 1558.3 1028.3 1586.2 1031.2C1614 1034 1642 1023 1669.8 1015C1697.7 1007 1725.3 1002 1753.2 1001.8C1781 1001.7 1809 1006.3 1836.8 1014.5C1864.7 1022.7 1892.3 1034.3 1906.2 1040.2L1920 1046L1920 1081L1906.2 1081C1892.3 1081 1864.7 1081 1836.8 1081C1809 1081 1781 1081 1753.2 1081C1725.3 1081 1697.7 1081 1669.8 1081C1642 1081 1614 1081 1586.2 1081C1558.3 1081 1530.7 1081 1502.8 1081C1475 1081 1447 1081 1419.2 1081C1391.3 1081 1363.7 1081 1335.8 1081C1308 1081 1280 1081 1252.2 1081C1224.3 1081 1196.7 1081 1168.8 1081C1141 1081 1113 1081 1085.2 1081C1057.3 1081 1029.7 1081 1001.8 1081C974 1081 946 1081 918.2 1081C890.3 1081 862.7 1081 834.8 1081C807 1081 779 1081 751.2 1081C723.3 1081 695.7 1081 667.8 1081C640 1081 612 1081 584.2 1081C556.3 1081 528.7 1081 500.8 1081C473 1081 445 1081 417.2 1081C389.3 1081 361.7 1081 333.8 1081C306 1081 278 1081 250.2 1081C222.3 1081 194.7 1081 166.8 1081C139 1081 111 1081 83.2 1081C55.3 1081 27.7 1081 13.8 1081L0 1081Z" fill="#f38ba8"></path></svg>