<svg id="visual" viewBox="0 0 1920 1080" width="1920" height="1080" xmlns="http://www.w3.org/2000/svg" xmlns:xlink="http://www.w3.org/1999/xlink" version="1.1"><rect x="0" y="0" width="1920" height="1080" fill="#181825"></rect><path d="M0 473L13.8 471.3C27.7 469.7 55.3 466.3 83.2 471.7C111 477 139 491 166.8 499.5C194.7 508 222.3 511 250.2 501.5C278 492 306 470 333.8 471C361.7 472 389.3 496 417.2 494.7C445 493.3 473 466.7 500.8 447.3C528.7 428 556.3 416 584.2 431C612 446 640 488 667.8 496.2C695.7 504.3 723.3 478.7 751.2 476C779 473.3 807 493.7 834.8 508.7C862.7 523.7 890.3 533.3 918.2 526.5C946 519.7 974 496.3 1001.8 484.3C1029.7 472.3 1057.3 471.7 1085.2 463.8C1113 456 1141 441 1168.8 432.8C1196.7 424.7 1224.3 423.3 1252.2 430C1280 436.7 1308 451.3 1335.8 450.7C1363.7 450 1391.3 434 1419.2 437.2C1447 440.3 1475 462.7 1502.8 473.5C1530.7 484.3 1558.3 483.7 1586.2 485.7C1614 487.7 1642 492.3 1669.8 497.5C1697.7 502.7 1725.3 508.3 1753.2 500.3C1781 492.3 1809 470.7 1836.8 476.5C1864.7 482.3 1892.3 515.7 1906.2 532.3L1920 549L1920 1081L1906.2 1081C1892.3 1081 1864.7 1081 1836.8 1081C1809 1081 1781 1081 1753.2 1081C1725.3 1081 1697.7 1081 1669.8 1081C1642 1081 1614 1081 1586.2 1081C1558.3 1081 1530.7 1081 1502.8 1081C1475 1081 1447 1081 1419.2 1081C1391.3 1081 1363.7 1081 1335.8 1081C1308 1081 1280 1081 1252.2 1081C1224.3 1081 1196.7 1081 1168.8 1081C1141 1081 1113 1081 1085.2 1081C1057.3 1081 1029.7 1081 1001.8 1081C974 1081 946 1081 918.2 1081C890.3 1081 862.7 1081 834.8 1081C807 1081 779 1081 751.2 1081C723.3 1081 695.7 1081 667.8 1081C640 1081 612 1081 584.2 1081C556.3 1081 528.7 1081 500.8 1081C473 1081 445 1081 417.2 1081C389.3 1081 361.7 1081 333.8 1081C306 1081 278 1081 250.2 1081C222.3 1081 194.7 1081 166.8 1081C139 1081 111 1081 83.2 1081C55.3 1081 27.7 1081 13.8 1081L0 1081Z" fill="#f5c2e7"></path><path d="M0 569L13.8 574C27.7 579 55.3 589 83.2 574.2C111 559.3 139 519.7 166.8 518.5C194.7 517.3 222.3 554.7 250.2 561C278 567.3 306 542.7 333.8 542.3C361.7 542 389.3 566 417.2 566C445 566 473 542 500.8 535.7C528.7 529.3 556.3 540.7 584.2 542.8C612 545 640 538 667.8 540.7C695.7 543.3 723.3 555.7 751.2 554.5C779 553.3 807 538.7 834.8 537.8C862.7 537 890.3 550 918.2 557.8C946 565.7 974 568.3 1001.8 551.8C1029.7 535.3 1057.3 499.7 1085.2 502.7C1113 505.7 1141 547.3 1168.8 564.3C1196.7 581.3 1224.3 573.7 1252.2 566.7C1280 559.7 1308 553.3 1335.8 550C1363.7 546.7 1391.3 546.3 1419.2 534.3C1447 522.3 1475 498.7 1502.8 498C1530.7 497.3 1558.3 519.7 1586.2 518.2C1614 516.7 1642 491.3 1669.8 480C1697.7 468.7 1725.3 471.3 1753.2 481.7C1781 492 1809 510 1836.8 523C1864.7 536 1892.3 544 1906.2 548L1920 552L1920 1081L1906.2 1081C1892.3 1081 1864.7 1081 1836.8 1081C1809 1081 1781 1081 1753.2 1081C1725.3 1081 1697.7 1081 1669.8 1081C1642 1081 1614 1081 1586.2 1081C1558.3 1081 1530.7 1081 1502.8 1081C1475 1081 1447 1081 1419.2 1081C1391.3 1081 1363.7 1081 1335.8 1081C1308 1081 1280 1081 1252.2 1081C1224.3 1081 1196.7 1081 1168.8 1081C1141 1081 1113 1081 1085.2 1081C1057.3 1081 1029.7 1081 1001.8 1081C974 1081 946 1081 918.2 1081C890.3 1081 862.7 1081 834.8 1081C807 1081 779 1081 751.2 1081C723.3 1081 695.7 1081 667.8 1081C640 1081 612 1081 584.2 1081C556.3 1081 528.7 1081 500.8 1081C473 1081 445 1081 417.2 1081C389.3 1081 361.7 1081 333.8 1081C306 1081 278 1081 250.2 1081C222.3 1081 194.7 1081 166.8 1081C139 1081 111 1081 83.2 1081C55.3 1081 27.7 1081 13.8 1081L0 1081Z" fill="#f5bde2"></path><path d="M0 520L13.8 520.3C27.7 520.7 55.3 521.3 83.2 526.7C111 532 139 542 166.8 543.3C194.7 544.7 222.3 537.3 250.2 539.2C278 541 306 552 333.8 567.3C361.7 582.7 389.3 602.3 417.2 614.7C445 627 473 632 500.8 635.5C528.7 639 556.3 641 584.2 623.7C612 606.3 640 569.7 667.8 557.7C695.7 545.7 723.3 558.3 751.2 570.5C779 582.7 807 594.3 834.8 603.5C862.7 612.7 890.3 619.3 918.2 603.8C946 588.3 974 550.7 1001.8 551.5C1029.7 552.3 1057.3 591.7 1085.2 606.7C1113 621.7 1141 612.3 1168.8 597.5C1196.7 582.7 1224.3 562.3 1252.2 561.3C1280 560.3 1308 578.7 1335.8 594.3C1363.7 610 1391.3 623 1419.2 612.5C1447 602 1475 568 1502.8 553.5C1530.7 539 1558.3 544 1586.2 556.8C1614 569.7 1642 590.3 1669.8 604C1697.7 617.7 1725.3 624.3 1753.2 619.2C1781 614 1809 597 1836.8 580.3C1864.7 563.7 1892.3 547.3 1906.2 539.2L1920 531L1920 1081L1906.2 1081C1892.3 1081 1864.7 1081 1836.8 1081C1809 1081 1781 1081 1753.2 1081C1725.3 1081 1697.7 1081 1669.8 1081C1642 1081 1614 1081 1586.2 1081C1558.3 1081 1530.7 1081 1502.8 1081C1475 1081 1447 1081 1419.2 1081C1391.3 1081 1363.7 1081 1335.8 1081C1308 1081 1280 1081 1252.2 1081C1224.3 1081 1196.7 1081 1168.8 1081C1141 1081 1113 1081 1085.2 1081C1057.3 1081 1029.7 1081 1001.8 1081C974 1081 946 1081 918.2 1081C890.3 1081 862.7 1081 834.8 1081C807 1081 779 1081 751.2 1081C723.3 1081 695.7 1081 667.8 1081C640 1081 612 1081 584.2 1081C556.3 1081 528.7 1081 500.8 1081C473 1081 445 1081 417.2 1081C389.3 1081 361.7 1081 333.8 1081C306 1081 278 1081 250.2 1081C222.3 1081 194.7 1081 166.8 1081C139 1081 111 1081 83.2 1081C55.3 1081 27.7 1081 13.8 1081L0 1081Z" fill="#f5b8de"></path><path d="M0 640L13.8 642C27.7 644 55.3 648 83.2 643.8C111 639.7 139 627.3 166.8 617.5C194.7 607.7 222.3 600.3 250.2 605.7C278 611 306 629 333.8 628.7C361.7 628.3 389.3 609.7 417.2 611.2C445 612.7 473 634.3 500.8 646.5C528.7 658.7 556.3 661.3 584.2 666C612 670.7 640 677.3 667.8 679C695.7 680.7 723.3 677.3 751.2 662.5C779 647.7 807 621.3 834.8 611.7C862.7 602 890.3 609 918.2 617C946 625 974 634 1001.8 629C1029.7 624 1057.3 605 1085.2 604.7C1113 604.3 1141 622.7 1168.8 628C1196.7 633.3 1224.3 625.7 1252.2 615.3C1280 605 1308 592 1335.8 592.7C1363.7 593.3 1391.3 607.7 1419.2 617.2C1447 626.7 1475 631.3 1502.8 628.8C1530.7 626.3 1558.3 616.7 1586.2 618.3C1614 620 1642 633 1669.8 643.3C1697.7 653.7 1725.3 661.3 1753.2 656.8C1781 652.3 1809 635.7 1836.8 636.3C1864.7 637 1892.3 655 1906.2 664L1920 673L1920 1081L1906.2 1081C1892.3 1081 1864.7 1081 1836.8 1081C1809 1081 1781 1081 1753.2 1081C1725.3 1081 1697.7 1081 1669.8 1081C1642 1081 1614 1081 1586.2 1081C1558.3 1081 1530.7 1081 1502.8 1081C1475 1081 1447 1081 1419.2 1081C1391.3 1081 1363.7 1081 1335.8 1081C1308 1081 1280 1081 1252.2 1081C1224.3 1081 1196.7 1081 1168.8 1081C1141 1081 1113 1081 1085.2 1081C1057.3 1081 1029.7 1081 1001.8 1081C974 1081 946 1081 918.2 1081C890.3 1081 862.7 1081 834.8 1081C807 1081 779 1081 751.2 1081C723.3 1081 695.7 1081 667.8 1081C640 1081 612 1081 584.2 1081C556.3 1081 528.7 1081 500.8 1081C473 1081 445 1081 417.2 1081C389.3 1081 361.7 1081 333.8 1081C306 1081 278 1081 250.2 1081C222.3 1081 194.7 1081 166.8 1081C139 1081 111 1081 83.2 1081C55.3 1081 27.7 1081 13.8 1081L0 1081Z" fill="#f5b3d9"></path><path d="M0 645L13.8 649.2C27.7 653.3 55.3 661.7 83.2 665.3C111 669 139 668 166.8 678C194.7 688 222.3 709 250.2 718.5C278 728 306 726 333.8 718.5C361.7 711 389.3 698 417.2 692C445 686 473 687 500.8 692.7C528.7 698.3 556.3 708.7 584.2 710.7C612 712.7 640 706.3 667.8 700.7C695.7 695 723.3 690 751.2 693.5C779 697 807 709 834.8 714.3C862.7 719.7 890.3 718.3 918.2 705.5C946 692.7 974 668.3 1001.8 660C1029.7 651.7 1057.3 659.3 1085.2 667.8C1113 676.3 1141 685.7 1168.8 692.2C1196.7 698.7 1224.3 702.3 1252.2 708.7C1280 715 1308 724 1335.8 714.8C1363.7 705.7 1391.3 678.3 1419.2 659.3C1447 640.3 1475 629.7 1502.8 624C1530.7 618.3 1558.3 617.7 1586.2 617C1614 616.3 1642 615.7 1669.8 628.3C1697.7 641 1725.3 667 1753.2 669.2C1781 671.3 1809 649.7 1836.8 641.5C1864.7 633.3 1892.3 638.7 1906.2 641.3L1920 644L1920 1081L1906.2 1081C1892.3 1081 1864.7 1081 1836.8 1081C1809 1081 1781 1081 1753.2 1081C1725.3 1081 1697.7 1081 1669.8 1081C1642 1081 1614 1081 1586.2 1081C1558.3 1081 1530.7 1081 1502.8 1081C1475 1081 1447 1081 1419.2 1081C1391.3 1081 1363.7 1081 1335.8 1081C1308 1081 1280 1081 1252.2 1081C1224.3 1081 1196.7 1081 1168.8 1081C1141 1081 1113 1081 1085.2 1081C1057.3 1081 1029.7 1081 1001.8 1081C974 1081 946 1081 918.2 1081C890.3 1081 862.7 1081 834.8 1081C807 1081 779 1081 751.2 1081C723.3 1081 695.7 1081 667.8 1081C640 1081 612 1081 584.2 1081C556.3 1081 528.7 1081 500.8 1081C473 1081 445 1081 417.2 1081C389.3 1081 361.7 1081 333.8 1081C306 1081 278 1081 250.2 1081C222.3 1081 194.7 1081 166.8 1081C139 1081 111 1081 83.2 1081C55.3 1081 27.7 1081 13.8 1081L0 1081Z" fill="#f5aed3"></path><path d="M0 728L13.8 724.2C27.7 720.3 55.3 712.7 83.2 708C111 703.3 139 701.7 166.8 706.7C194.7 711.7 222.3 723.3 250.2 731C278 738.7 306 742.3 333.8 747.3C361.7 752.3 389.3 758.7 417.2 748.2C445 737.7 473 710.3 500.8 701.3C528.7 692.3 556.3 701.7 584.2 701C612 700.3 640 689.7 667.8 700.3C695.7 711 723.3 743 751.2 758.5C779 774 807 773 834.8 764.2C862.7 755.3 890.3 738.7 918.2 738.2C946 737.7 974 753.3 1001.8 752.3C1029.7 751.3 1057.3 733.7 1085.2 726C1113 718.3 1141 720.7 1168.8 721C1196.7 721.3 1224.3 719.7 1252.2 721.8C1280 724 1308 730 1335.8 736.5C1363.7 743 1391.3 750 1419.2 746.7C1447 743.3 1475 729.7 1502.8 718C1530.7 706.3 1558.3 696.7 1586.2 693.8C1614 691 1642 695 1669.8 695.8C1697.7 696.7 1725.3 694.3 1753.2 696.7C1781 699 1809 706 1836.8 710.8C1864.7 715.7 1892.3 718.3 1906.2 719.7L1920 721L1920 1081L1906.2 1081C1892.3 1081 1864.7 1081 1836.8 1081C1809 1081 1781 1081 1753.2 1081C1725.3 1081 1697.7 1081 1669.8 1081C1642 1081 1614 1081 1586.2 1081C1558.3 1081 1530.7 1081 1502.8 1081C1475 1081 1447 1081 1419.2 1081C1391.3 1081 1363.7 1081 1335.8 1081C1308 1081 1280 1081 1252.2 1081C1224.3 1081 1196.7 1081 1168.8 1081C1141 1081 1113 1081 1085.2 1081C1057.3 1081 1029.7 1081 1001.8 1081C974 1081 946 1081 918.2 1081C890.3 1081 862.7 1081 834.8 1081C807 1081 779 1081 751.2 1081C723.3 1081 695.7 1081 667.8 1081C640 1081 612 1081 584.2 1081C556.3 1081 528.7 1081 500.8 1081C473 1081 445 1081 417.2 1081C389.3 1081 361.7 1081 333.8 1081C306 1081 278 1081 250.2 1081C222.3 1081 194.7 1081 166.8 1081C139 1081 111 1081 83.2 1081C55.3 1081 27.7 1081 13.8 1081L0 1081Z" fill="#f5a9ce"></path><path d="M0 806L13.8 801.7C27.7 797.3 55.3 788.7 83.2 784.2C111 779.7 139 779.3 166.8 778.5C194.7 777.7 222.3 776.3 250.2 768.7C278 761 306 747 333.8 740.5C361.7 734 389.3 735 417.2 739.5C445 744 473 752 500.8 757.5C528.7 763 556.3 766 584.2 769.5C612 773 640 777 667.8 779C695.7 781 723.3 781 751.2 776.7C779 772.3 807 763.7 834.8 761.5C862.7 759.3 890.3 763.7 918.2 772C946 780.3 974 792.7 1001.8 790C1029.7 787.3 1057.3 769.7 1085.2 765C1113 760.3 1141 768.7 1168.8 776.7C1196.7 784.7 1224.3 792.3 1252.2 796C1280 799.7 1308 799.3 1335.8 797.5C1363.7 795.7 1391.3 792.3 1419.2 783.5C1447 774.7 1475 760.3 1502.8 749.7C1530.7 739 1558.3 732 1586.2 733.2C1614 734.3 1642 743.7 1669.8 748C1697.7 752.3 1725.3 751.7 1753.2 762C1781 772.3 1809 793.7 1836.8 796.5C1864.7 799.3 1892.3 783.7 1906.2 775.8L1920 768L1920 1081L1906.2 1081C1892.3 1081 1864.7 1081 1836.8 1081C1809 1081 1781 1081 1753.2 1081C1725.3 1081 1697.7 1081 1669.8 1081C1642 1081 1614 1081 1586.2 1081C1558.3 1081 1530.7 1081 1502.8 1081C1475 1081 1447 1081 1419.2 1081C1391.3 1081 1363.7 1081 1335.8 1081C1308 1081 1280 1081 1252.2 1081C1224.3 1081 1196.7 1081 1168.8 1081C1141 1081 1113 1081 1085.2 1081C1057.3 1081 1029.7 1081 1001.8 1081C974 1081 946 1081 918.2 1081C890.3 1081 862.7 1081 834.8 1081C807 1081 779 1081 751.2 1081C723.3 1081 695.7 1081 667.8 1081C640 1081 612 1081 584.2 1081C556.3 1081 528.7 1081 500.8 1081C473 1081 445 1081 417.2 1081C389.3 1081 361.7 1081 333.8 1081C306 1081 278 1081 250.2 1081C222.3 1081 194.7 1081 166.8 1081C139 1081 111 1081 83.2 1081C55.3 1081 27.7 1081 13.8 1081L0 1081Z" fill="#f5a4c8"></path><path d="M0 868L13.8 868C27.7 868 55.3 868 83.2 855.5C111 843 139 818 166.8 814.3C194.7 810.7 222.3 828.3 250.2 829.2C278 830 306 814 333.8 812C361.7 810 389.3 822 417.2 826.8C445 831.7 473 829.3 500.8 824C528.7 818.7 556.3 810.3 584.2 808C612 805.7 640 809.3 667.8 819.3C695.7 829.3 723.3 845.7 751.2 846C779 846.3 807 830.7 834.8 816.5C862.7 802.3 890.3 789.7 918.2 783.8C946 778 974 779 1001.8 791.8C1029.7 804.7 1057.3 829.3 1085.2 837.3C1113 845.3 1141 836.7 1168.8 829C1196.7 821.3 1224.3 814.7 1252.2 808.7C1280 802.7 1308 797.3 1335.8 796.7C1363.7 796 1391.3 800 1419.2 801C1447 802 1475 800 1502.8 796C1530.7 792 1558.3 786 1586.2 790C1614 794 1642 808 1669.8 808.2C1697.7 808.3 1725.3 794.7 1753.2 792.8C1781 791 1809 801 1836.8 806C1864.7 811 1892.3 811 1906.2 811L1920 811L1920 1081L1906.2 1081C1892.3 1081 1864.7 1081 1836.8 1081C1809 1081 1781 1081 1753.2 1081C1725.3 1081 1697.7 1081 1669.8 1081C1642 1081 1614 1081 1586.2 1081C1558.3 1081 1530.7 1081 1502.8 1081C1475 1081 1447 1081 1419.2 1081C1391.3 1081 1363.7 1081 1335.8 1081C1308 1081 1280 1081 1252.2 1081C1224.3 1081 1196.7 1081 1168.8 1081C1141 1081 1113 1081 1085.2 1081C1057.3 1081 1029.7 1081 1001.8 1081C974 1081 946 1081 918.2 1081C890.3 1081 862.7 1081 834.8 1081C807 1081 779 1081 751.2 1081C723.3 1081 695.7 1081 667.8 1081C640 1081 612 1081 584.2 1081C556.3 1081 528.7 1081 500.8 1081C473 1081 445 1081 417.2 1081C389.3 1081 361.7 1081 333.8 1081C306 1081 278 1081 250.2 1081C222.3 1081 194.7 1081 166.8 1081C139 1081 111 1081 83.2 1081C55.3 1081 27.7 1081 13.8 1081L0 1081Z" fill="#f59fc2"></path><path d="M0 882L13.8 877.8C27.7 873.7 55.3 865.3 83.2 868.8C111 872.3 139 887.7 166.8 896.5C194.7 905.3 222.3 907.7 250.2 896.3C278 885 306 860 333.8 854.5C361.7 849 389.3 863 417.2 862.3C445 861.7 473 846.3 500.8 851.2C528.7 856 556.3 881 584.2 891.3C612 901.7 640 897.3 667.8 889.8C695.7 882.3 723.3 871.7 751.2 865.5C779 859.3 807 857.7 834.8 859.7C862.7 861.7 890.3 867.3 918.2 870.3C946 873.3 974 873.7 1001.8 872.3C1029.7 871 1057.3 868 1085.2 865.3C1113 862.7 1141 860.3 1168.8 857.8C1196.7 855.3 1224.3 852.7 1252.2 855.5C1280 858.3 1308 866.7 1335.8 866.3C1363.7 866 1391.3 857 1419.2 850.8C1447 844.7 1475 841.3 1502.8 841.7C1530.7 842 1558.3 846 1586.2 852.5C1614 859 1642 868 1669.8 869.7C1697.7 871.3 1725.3 865.7 1753.2 871.2C1781 876.7 1809 893.3 1836.8 891.3C1864.7 889.3 1892.3 868.7 1906.2 858.3L1920 848L1920 1081L1906.2 1081C1892.3 1081 1864.7 1081 1836.8 1081C1809 1081 1781 1081 1753.2 1081C1725.3 1081 1697.7 1081 1669.8 1081C1642 1081 1614 1081 1586.2 1081C1558.3 1081 1530.7 1081 1502.8 1081C1475 1081 1447 1081 1419.2 1081C1391.3 1081 1363.7 1081 1335.8 1081C1308 1081 1280 1081 1252.2 1081C1224.3 1081 1196.7 1081 1168.8 1081C1141 1081 1113 1081 1085.2 1081C1057.3 1081 1029.7 1081 1001.8 1081C974 1081 946 1081 918.2 1081C890.3 1081 862.7 1081 834.8 1081C807 1081 779 1081 751.2 1081C723.3 1081 695.7 1081 667.8 1081C640 1081 612 1081 584.2 1081C556.3 1081 528.7 1081 500.8 1081C473 1081 445 1081 417.2 1081C389.3 1081 361.7 1081 333.8 1081C306 1081 278 1081 250.2 1081C222.3 1081 194.7 1081 166.8 1081C139 1081 111 1081 83.2 1081C55.3 1081 27.7 1081 13.8 1081L0 1081Z" fill="#f59abc"></path><path d="M0 941L13.8 942.3C27.7 943.7 55.3 946.3 83.2 948.2C111 950 139 951 166.8 940.3C194.7 929.7 222.3 907.3 250.2 902.8C278 898.3 306 911.7 333.8 916.8C361.7 922 389.3 919 417.2 912.5C445 906 473 896 500.8 900.5C528.7 905 556.3 924 584.2 935C612 946 640 949 667.8 951.5C695.7 954 723.3 956 751.2 956.5C779 957 807 956 834.8 953.7C862.7 951.3 890.3 947.7 918.2 942C946 936.3 974 928.7 1001.8 923.8C1029.7 919 1057.3 917 1085.2 918C1113 919 1141 923 1168.8 925C1196.7 927 1224.3 927 1252.2 925.3C1280 923.7 1308 920.3 1335.8 914.5C1363.7 908.7 1391.3 900.3 1419.2 904.3C1447 908.3 1475 924.7 1502.8 930.2C1530.7 935.7 1558.3 930.3 1586.2 923.7C1614 917 1642 909 1669.8 911.7C1697.7 914.3 1725.3 927.7 1753.2 925C1781 922.3 1809 903.7 1836.8 894.5C1864.7 885.3 1892.3 885.7 1906.2 885.8L1920 886L1920 1081L1906.2 1081C1892.3 1081 1864.7 1081 1836.8 1081C1809 1081 1781 1081 1753.2 1081C1725.3 1081 1697.7 1081 1669.8 1081C1642 1081 1614 1081 1586.2 1081C1558.3 1081 1530.7 1081 1502.8 1081C1475 1081 1447 1081 1419.2 1081C1391.3 1081 1363.7 1081 1335.8 1081C1308 1081 1280 1081 1252.2 1081C1224.3 1081 1196.7 1081 1168.8 1081C1141 1081 1113 1081 1085.2 1081C1057.3 1081 1029.7 1081 1001.8 1081C974 1081 946 1081 918.2 1081C890.3 1081 862.7 1081 834.8 1081C807 1081 779 1081 751.2 1081C723.3 1081 695.7 1081 667.8 1081C640 1081 612 1081 584.2 1081C556.3 1081 528.7 1081 500.8 1081C473 1081 445 1081 417.2 1081C389.3 1081 361.7 1081 333.8 1081C306 1081 278 1081 250.2 1081C222.3 1081 194.7 1081 166.8 1081C139 1081 111 1081 83.2 1081C55.3 1081 27.7 1081 13.8 1081L0 1081Z" fill="#f495b5"></path><path d="M0 974L13.8 976.7C27.7 979.3 55.3 984.7 83.2 989.3C111 994 139 998 166.8 991.7C194.7 985.3 222.3 968.7 250.2 967C278 965.3 306 978.7 333.8 978C361.7 977.3 389.3 962.7 417.2 959C445 955.3 473 962.7 500.8 970C528.7 977.3 556.3 984.7 584.2 984.7C612 984.7 640 977.3 667.8 971.8C695.7 966.3 723.3 962.7 751.2 967.5C779 972.3 807 985.7 834.8 991.8C862.7 998 890.3 997 918.2 997.2C946 997.3 974 998.7 1001.8 999.5C1029.7 1000.3 1057.3 1000.7 1085.2 991.2C1113 981.7 1141 962.3 1168.8 961.2C1196.7 960 1224.3 977 1252.2 981C1280 985 1308 976 1335.8 970.5C1363.7 965 1391.3 963 1419.2 969C1447 975 1475 989 1502.8 990.7C1530.7 992.3 1558.3 981.7 1586.2 976.8C1614 972 1642 973 1669.8 969.3C1697.7 965.7 1725.3 957.3 1753.2 959.2C1781 961 1809 973 1836.8 975.3C1864.7 977.7 1892.3 970.3 1906.2 966.7L1920 963L1920 1081L1906.2 1081C1892.3 1081 1864.7 1081 1836.8 1081C1809 1081 1781 1081 1753.2 1081C1725.3 1081 1697.7 1081 1669.8 1081C1642 1081 1614 1081 1586.2 1081C1558.3 1081 1530.7 1081 1502.8 1081C1475 1081 1447 1081 1419.2 1081C1391.3 1081 1363.7 1081 1335.8 1081C1308 1081 1280 1081 1252.2 1081C1224.3 1081 1196.7 1081 1168.8 1081C1141 1081 1113 1081 1085.2 1081C1057.3 1081 1029.7 1081 1001.8 1081C974 1081 946 1081 918.2 1081C890.3 1081 862.7 1081 834.8 1081C807 1081 779 1081 751.2 1081C723.3 1081 695.7 1081 667.8 1081C640 1081 612 1081 584.2 1081C556.3 1081 528.7 1081 500.8 1081C473 1081 445 1081 417.2 1081C389.3 1081 361.7 1081 333.8 1081C306 1081 278 1081 250.2 1081C222.3 1081 194.7 1081 166.8 1081C139 1081 111 1081 83.2 1081C55.3 1081 27.7 1081 13.8 1081L0 1081Z" fill="#f490af"></path><path d="M0 998L13.8 1000.2C27.7 1002.3 55.3 1006.7 83.2 1011.2C111 1015.7 139 1020.3 166.8 1022.3C194.7 1024.3 222.3 1023.7 250.2 1027C278 1030.3 306 1037.7 333.8 1034.8C361.7 1032 389.3 1019 417.2 1011.3C445 1003.7 473 1001.3 500.8 1006.3C528.7 1011.3 556.3 1023.7 584.2 1030.2C612 1036.7 640 1037.3 667.8 1037C695.7 1036.7 723.3 1035.3 751.2 1034.2C779 1033 807 1032 834.8 1025C862.7 1018 890.3 1005 918.2 1004C946 1003 974 1014 1001.8 1021.8C1029.7 1029.7 1057.3 1034.3 1085.2 1030.2C1113 1026 1141 1013 1168.8 1011.5C1196.7 1010 1224.3 1020 1252.2 1019.3C1280 1018.7 1308 1007.3 1335.8 1003.3C1363.7 999.3 1391.3 1002.7 1419.2 1007.5C1447 1012.3 1475 1018.7 1502.8 1026C1530.7 1033.3 1558.3 1041.7 1586.2 1043.7C1614 1045.7 1642 1041.3 1669.8 1037.8C1697.7 1034.3 1725.3 1031.7 1753.2 1026.3C1781 1021 1809 1013 1836.8 1013.8C1864.7 1014.7 1892.3 1024.3 1906.2 1029.2L1920 1034L1920 1081L1906.2 1081C1892.3 1081 1864.7 1081 1836.8 1081C1809 1081 1781 1081 1753.2 1081C1725.3 1081 1697.7 1081 1669.8 1081C1642 1081 1614 1081 1586.2 1081C1558.3 1081 1530.7 1081 1502.8 1081C1475 1081 1447 1081 1419.2 1081C1391.3 1081 1363.7 1081 1335.8 1081C1308 1081 1280 1081 1252.2 1081C1224.3 1081 1196.7 1081 1168.8 1081C1141 1081 1113 1081 1085.2 1081C1057.3 1081 1029.7 1081 1001.8 1081C974 1081 946 1081 918.2 1081C890.3 1081 862.7 1081 834.8 1081C807 1081 779 1081 751.2 1081C723.3 1081 695.7 1081 667.8 1081C640 1081 612 1081 584.2 1081C556.3 1081 528.7 1081 500.8 1081C473 1081 445 1081 417.2 1081C389.3 1081 361.7 1081 333.8 1081C306 1081 278 1081 250.2 1081C222.3 1081 194.7 1081 166.8 1081C139 1081 111 1081 83.2 1081C55.3 1081 27.7 1081 13.8 1081L0 1081Z" fill="#f38ba8"></path></svg>